<svg width="18" height="18" viewBox="0 0 18 18" fill="none" xmlns="http://www.w3.org/2000/svg">
<path d="M16.875 3.9375H1.125C0.504 3.9375 0 4.4415 0 5.0625V5.70262L9 9.51412L18 5.7015V5.0625C18 4.4415 17.496 3.9375 16.875 3.9375Z" fill="#FF7629"/>
<path d="M9.21937 10.6427C9.14962 10.6731 9.07425 10.6877 9 10.6877C8.92575 10.6877 8.85038 10.6731 8.78062 10.6427L0 6.92456V15.1877C0 15.8087 0.504 16.3127 1.125 16.3127H16.875C17.496 16.3127 18 15.8087 18 15.1877V6.92456L9.21937 10.6427Z" fill="#FF7629"/>
<path d="M15.75 1.6875H2.25C1.629 1.6875 1.125 2.1915 1.125 2.8125H16.875C16.875 2.1915 16.371 1.6875 15.75 1.6875Z" fill="#FF7629"/>
</svg>
