<svg width="98" height="42" viewBox="0 0 98 42" fill="none" xmlns="http://www.w3.org/2000/svg">
<path d="M6.588 38C6.452 37.64 6.324 37.288 6.204 36.944C6.084 36.592 5.96 36.236 5.832 35.876H2.064L1.308 38H0.096C0.416 37.12 0.716 36.308 0.996 35.564C1.276 34.812 1.548 34.1 1.812 33.428C2.084 32.756 2.352 32.116 2.616 31.508C2.88 30.892 3.156 30.284 3.444 29.684H4.512C4.8 30.284 5.076 30.892 5.34 31.508C5.604 32.116 5.868 32.756 6.132 33.428C6.404 34.1 6.68 34.812 6.96 35.564C7.24 36.308 7.54 37.12 7.86 38H6.588ZM5.496 34.916C5.24 34.22 4.984 33.548 4.728 32.9C4.48 32.244 4.22 31.616 3.948 31.016C3.668 31.616 3.4 32.244 3.144 32.9C2.896 33.548 2.648 34.22 2.4 34.916H5.496ZM26.461 36.848C26.381 36.656 26.273 36.412 26.137 36.116C26.009 35.82 25.869 35.5 25.717 35.156C25.565 34.812 25.401 34.46 25.225 34.1C25.057 33.732 24.897 33.388 24.745 33.068C24.593 32.74 24.449 32.448 24.313 32.192C24.185 31.936 24.081 31.74 24.001 31.604C23.913 32.548 23.841 33.572 23.785 34.676C23.729 35.772 23.681 36.88 23.641 38H22.501C22.533 37.28 22.569 36.556 22.609 35.828C22.649 35.092 22.693 34.372 22.741 33.668C22.797 32.956 22.853 32.264 22.909 31.592C22.973 30.92 23.041 30.284 23.113 29.684H24.133C24.349 30.036 24.581 30.452 24.829 30.932C25.077 31.412 25.325 31.916 25.573 32.444C25.821 32.964 26.061 33.488 26.293 34.016C26.525 34.536 26.737 35.012 26.929 35.444C27.121 35.012 27.333 34.536 27.565 34.016C27.797 33.488 28.037 32.964 28.285 32.444C28.533 31.916 28.781 31.412 29.029 30.932C29.277 30.452 29.509 30.036 29.725 29.684H30.745C31.017 32.364 31.221 35.136 31.357 38H30.217C30.177 36.88 30.129 35.772 30.073 34.676C30.017 33.572 29.945 32.548 29.857 31.604C29.777 31.74 29.669 31.936 29.533 32.192C29.405 32.448 29.265 32.74 29.113 33.068C28.961 33.388 28.797 33.732 28.621 34.1C28.453 34.46 28.293 34.812 28.141 35.156C27.989 35.5 27.845 35.82 27.709 36.116C27.581 36.412 27.477 36.656 27.397 36.848H26.461ZM46.5862 33.836C46.5862 33.124 46.6902 32.496 46.8982 31.952C47.1142 31.408 47.4022 30.956 47.7622 30.596C48.1302 30.228 48.5542 29.952 49.0342 29.768C49.5222 29.584 50.0382 29.492 50.5822 29.492C51.1182 29.492 51.6222 29.584 52.0942 29.768C52.5742 29.952 52.9942 30.228 53.3542 30.596C53.7142 30.956 53.9982 31.408 54.2062 31.952C54.4222 32.496 54.5302 33.124 54.5302 33.836C54.5302 34.548 54.4222 35.176 54.2062 35.72C53.9982 36.264 53.7142 36.72 53.3542 37.088C52.9942 37.448 52.5742 37.72 52.0942 37.904C51.6222 38.088 51.1182 38.18 50.5822 38.18C50.0382 38.18 49.5222 38.088 49.0342 37.904C48.5542 37.72 48.1302 37.448 47.7622 37.088C47.4022 36.72 47.1142 36.264 46.8982 35.72C46.6902 35.176 46.5862 34.548 46.5862 33.836ZM47.8102 33.836C47.8102 34.34 47.8742 34.8 48.0022 35.216C48.1302 35.624 48.3102 35.972 48.5422 36.26C48.7822 36.548 49.0702 36.772 49.4062 36.932C49.7502 37.084 50.1342 37.16 50.5582 37.16C50.9822 37.16 51.3622 37.084 51.6982 36.932C52.0342 36.772 52.3182 36.548 52.5502 36.26C52.7902 35.972 52.9742 35.624 53.1022 35.216C53.2302 34.8 53.2942 34.34 53.2942 33.836C53.2942 33.332 53.2302 32.876 53.1022 32.468C52.9742 32.052 52.7902 31.7 52.5502 31.412C52.3182 31.124 52.0342 30.904 51.6982 30.752C51.3622 30.592 50.9822 30.512 50.5582 30.512C50.1342 30.512 49.7502 30.592 49.4062 30.752C49.0702 30.904 48.7822 31.124 48.5422 31.412C48.3102 31.7 48.1302 32.052 48.0022 32.468C47.8742 32.876 47.8102 33.332 47.8102 33.836ZM74.07 34.52C74.198 34.68 74.358 34.892 74.55 35.156C74.75 35.412 74.954 35.7 75.162 36.02C75.37 36.332 75.574 36.66 75.774 37.004C75.982 37.348 76.158 37.68 76.302 38H75.03C74.87 37.696 74.694 37.388 74.502 37.076C74.318 36.764 74.13 36.468 73.938 36.188C73.746 35.9 73.554 35.632 73.362 35.384C73.178 35.136 73.01 34.92 72.858 34.736C72.754 34.744 72.646 34.748 72.534 34.748C72.43 34.748 72.322 34.748 72.21 34.748H71.166V38H70.002V29.804C70.33 29.724 70.694 29.672 71.094 29.648C71.502 29.616 71.874 29.6 72.21 29.6C73.378 29.6 74.266 29.82 74.874 30.26C75.49 30.7 75.798 31.356 75.798 32.228C75.798 32.78 75.65 33.252 75.354 33.644C75.066 34.036 74.638 34.328 74.07 34.52ZM72.306 30.62C71.81 30.62 71.43 30.632 71.166 30.656V33.788H71.994C72.394 33.788 72.754 33.768 73.074 33.728C73.394 33.688 73.662 33.612 73.878 33.5C74.102 33.388 74.274 33.232 74.394 33.032C74.514 32.824 74.574 32.552 74.574 32.216C74.574 31.904 74.514 31.644 74.394 31.436C74.274 31.228 74.11 31.064 73.902 30.944C73.702 30.824 73.462 30.74 73.182 30.692C72.91 30.644 72.618 30.62 72.306 30.62ZM91.2889 38V29.684H96.3649V30.68H92.4529V33.152H95.9329V34.124H92.4529V37.004H96.6649V38H91.2889Z" fill="white"/>
<path d="M31.9434 21.28C29.6901 21.28 27.9701 20.6533 26.7834 19.4C25.6101 18.1467 25.0234 16.3667 25.0234 14.06C25.0234 12.9133 25.2034 11.8933 25.5634 11C25.9234 10.0933 26.4168 9.33333 27.0434 8.72C27.6701 8.09333 28.4168 7.62 29.2834 7.3C30.1501 6.98 31.0901 6.82 32.1034 6.82C32.6901 6.82 33.2234 6.86667 33.7034 6.96C34.1834 7.04 34.6034 7.14 34.9634 7.26C35.3234 7.36667 35.6234 7.48 35.8634 7.6C36.1034 7.72 36.2768 7.81333 36.3834 7.88L35.4834 10.4C35.0568 10.1733 34.5568 9.98 33.9834 9.82C33.4234 9.66 32.7834 9.58 32.0634 9.58C31.5834 9.58 31.1101 9.66 30.6434 9.82C30.1901 9.98 29.7834 10.24 29.4234 10.6C29.0768 10.9467 28.7968 11.4 28.5834 11.96C28.3701 12.52 28.2634 13.2 28.2634 14C28.2634 14.64 28.3301 15.24 28.4634 15.8C28.6101 16.3467 28.8368 16.82 29.1434 17.22C29.4634 17.62 29.8768 17.94 30.3834 18.18C30.8901 18.4067 31.5034 18.52 32.2234 18.52C32.6768 18.52 33.0834 18.4933 33.4434 18.44C33.8034 18.3867 34.1234 18.3267 34.4034 18.26C34.6834 18.18 34.9301 18.0933 35.1434 18C35.3568 17.9067 35.5501 17.82 35.7234 17.74L36.5834 20.24C36.1434 20.5067 35.5234 20.7467 34.7234 20.96C33.9234 21.1733 32.9968 21.28 31.9434 21.28ZM40.7044 14.06C40.7044 14.74 40.7844 15.3533 40.9444 15.9C41.1177 16.4467 41.3577 16.92 41.6644 17.32C41.9844 17.7067 42.371 18.0067 42.8244 18.22C43.2777 18.4333 43.7977 18.54 44.3844 18.54C44.9577 18.54 45.471 18.4333 45.9244 18.22C46.391 18.0067 46.7777 17.7067 47.0844 17.32C47.4044 16.92 47.6444 16.4467 47.8044 15.9C47.9777 15.3533 48.0644 14.74 48.0644 14.06C48.0644 13.38 47.9777 12.7667 47.8044 12.22C47.6444 11.66 47.4044 11.1867 47.0844 10.8C46.7777 10.4 46.391 10.0933 45.9244 9.88C45.471 9.66667 44.9577 9.56 44.3844 9.56C43.7977 9.56 43.2777 9.67333 42.8244 9.9C42.371 10.1133 41.9844 10.42 41.6644 10.82C41.3577 11.2067 41.1177 11.68 40.9444 12.24C40.7844 12.7867 40.7044 13.3933 40.7044 14.06ZM51.2844 14.06C51.2844 15.2467 51.1044 16.2933 50.7444 17.2C50.3977 18.0933 49.9177 18.8467 49.3044 19.46C48.691 20.06 47.9577 20.5133 47.1044 20.82C46.2644 21.1267 45.3577 21.28 44.3844 21.28C43.4377 21.28 42.5444 21.1267 41.7044 20.82C40.8644 20.5133 40.131 20.06 39.5044 19.46C38.8777 18.8467 38.3844 18.0933 38.0244 17.2C37.6644 16.2933 37.4844 15.2467 37.4844 14.06C37.4844 12.8733 37.671 11.8333 38.0444 10.94C38.4177 10.0333 38.9177 9.27333 39.5444 8.66C40.1844 8.04667 40.9177 7.58667 41.7444 7.28C42.5844 6.97333 43.4644 6.82 44.3844 6.82C45.331 6.82 46.2244 6.97333 47.0644 7.28C47.9044 7.58667 48.6377 8.04667 49.2644 8.66C49.891 9.27333 50.3844 10.0333 50.7444 10.94C51.1044 11.8333 51.2844 12.8733 51.2844 14.06ZM63.1852 21C62.2918 19.4133 61.3252 17.8467 60.2852 16.3C59.2452 14.7533 58.1385 13.2933 56.9652 11.92V21H53.8852V7.14H56.4252C56.8652 7.58 57.3518 8.12 57.8852 8.76C58.4185 9.4 58.9585 10.0867 59.5052 10.82C60.0652 11.54 60.6185 12.2933 61.1652 13.08C61.7118 13.8533 62.2252 14.6 62.7052 15.32V7.14H65.8052V21H63.1852Z" fill="white"/>
</svg>
