<svg width="17" height="17" viewBox="0 0 17 17" fill="none" xmlns="http://www.w3.org/2000/svg">
<path d="M16.6926 4.3325C14.4691 2.22592 11.56 1.06567 8.5 1.06567C5.44 1.06567 2.53087 2.22592 0.300322 4.3396C0.10625 4.53367 0 4.79362 0 5.0713C0 5.3518 0.111928 5.61885 0.300322 5.79662L1.98402 7.47962C2.37147 7.86707 3.07414 7.85575 3.43184 7.49592C3.95884 7.0086 4.53897 6.60485 5.15166 6.29885C5.53134 6.1161 5.66661 5.66703 5.66661 5.3086V3.44853C6.57043 3.20558 7.59681 3.1836 8.49993 3.1836C9.45688 3.1836 10.4578 3.20555 11.3333 3.4464V5.3086C11.3333 5.77892 11.5231 6.15153 11.8376 6.30453C12.4786 6.62471 13.0602 7.02773 13.5645 7.50021C13.7572 7.68226 14.0193 7.78708 14.2835 7.78708C14.5618 7.78708 14.8218 7.68013 15.0159 7.48676L16.6996 5.80306C16.893 5.61038 16.9999 5.34974 16.9999 5.07137C17 4.79362 16.8937 4.53367 16.6926 4.3325Z" fill="#FF7629"/>
<path d="M8.5 5.30835C6.15612 5.30835 4.25 7.21447 4.25 9.55835C4.25 11.9022 6.15612 13.8083 8.5 13.8083C8.53188 13.8083 8.56375 13.8062 8.6275 13.8013C8.76068 13.7977 8.88037 13.7198 8.93775 13.5994C8.99512 13.479 8.97955 13.3366 8.89807 13.2304C8.63032 12.8832 8.5 12.493 8.5 12.0375C8.5 11.6599 8.7033 11.3079 9.02982 11.1181C9.35139 10.9311 9.76789 10.9304 10.0909 11.1152C10.3941 11.2895 10.5988 11.3093 10.727 11.3093C10.9416 11.3093 11.1562 11.2434 11.4119 11.1648C11.6733 11.0848 11.9538 11.004 12.2662 10.9842C12.4156 10.9743 12.5431 10.8723 12.5842 10.7285C12.694 10.3417 12.75 9.94862 12.75 9.55832C12.75 7.21517 10.8439 5.30835 8.5 5.30835ZM8.5 10.975C7.7187 10.975 7.08332 10.3396 7.08332 9.55832C7.08332 8.77701 7.7187 8.14164 8.5 8.14164C9.2813 8.14164 9.91668 8.77701 9.91668 9.55832C9.91668 10.3396 9.2813 10.975 8.5 10.975Z" fill="#FF7629"/>
<path d="M8.50032 10.267C8.89151 10.267 9.20864 9.94986 9.20864 9.55866C9.20864 9.16747 8.89151 8.85034 8.50032 8.85034C8.10912 8.85034 7.79199 9.16747 7.79199 9.55866C7.79199 9.94986 8.10912 10.267 8.50032 10.267Z" fill="#FF7629"/>
<path d="M8.50032 10.267C8.89151 10.267 9.20864 9.94986 9.20864 9.55866C9.20864 9.16747 8.89151 8.85034 8.50032 8.85034C8.10912 8.85034 7.79199 9.16747 7.79199 9.55866C7.79199 9.94986 8.10912 10.267 8.50032 10.267Z" fill="#FF7629"/>
<path d="M12.3955 11.6833C12.1334 11.6833 11.8841 11.7605 11.6199 11.842C11.0553 12.0163 10.4093 12.1147 9.73783 11.7308C9.62803 11.6678 9.49345 11.6678 9.38438 11.7315C9.27531 11.7946 9.20801 11.9115 9.20801 12.0375C9.20801 13.7099 12.064 13.8034 12.3898 13.8083C12.3913 13.8083 12.3934 13.8083 12.3955 13.8083C12.4883 13.8083 12.5776 13.7715 12.6441 13.7063C12.7114 13.6405 12.7497 13.5491 12.7497 13.4542V12.0375C12.7497 11.842 12.591 11.6833 12.3955 11.6833Z" fill="#FF7629"/>
<path d="M15.1721 11.1318L14.1641 9.11591C14.157 8.9976 14.1358 8.87648 14.0989 8.73978C14.0501 8.55985 13.8716 8.44866 13.686 8.48621C13.5032 8.52376 13.3807 8.69658 13.4062 8.88146C13.4423 9.14001 13.4586 9.35534 13.4586 9.55864C13.4586 10.0793 13.3743 10.5992 13.2093 11.1056C13.1739 11.2126 13.1923 11.3302 13.2575 11.4216C13.3892 11.605 13.4586 11.8182 13.4586 12.0378V13.4545C13.4586 13.7371 13.3432 14.0134 13.142 14.2117C12.9416 14.4086 12.6773 14.517 12.3798 14.517C11.6885 14.5064 11.0149 14.3994 10.4312 14.2082C10.3561 14.1834 10.2747 14.1848 10.1989 14.2117C9.64496 14.4143 9.07407 14.517 8.50032 14.517C5.76614 14.517 3.54199 12.2929 3.54199 9.55871C3.54199 9.3554 3.5583 9.14008 3.59442 8.88083C3.61992 8.69595 3.49737 8.52313 3.31462 8.48558C3.13469 8.44876 2.95124 8.55926 2.90167 8.73915C2.86485 8.87515 2.84287 8.99697 2.83649 9.11528L1.82854 11.1312C1.55937 11.6703 1.41699 12.2723 1.41699 12.8744V15.5802C1.41699 15.7757 1.57567 15.9344 1.77117 15.9344H15.2295C15.425 15.9344 15.5837 15.7757 15.5837 15.5802V12.8744C15.5836 12.2723 15.4412 11.6702 15.1721 11.1318Z" fill="#FF7629"/>
</svg>
